<svg id="Capa_1" enable-background="new 0 0 512 512" height="512" viewBox="0 0 512 512" width="512" xmlns="http://www.w3.org/2000/svg"><circle cx="256" cy="256" fill="#ff583e" r="256"/><path d="m512 256c0-18.812-2.048-37.144-5.899-54.801l-121.784-113.588-25.357 53.706-92.485-83.001-103.441 371.755 81.668 81.667c3.747.163 7.511.262 11.298.262 141.385 0 256-114.615 256-256z" fill="#db0404"/><path d="m180.031 435c-46.564 0 2.504-47.145-31.257-181.184-21.915-87.011 28.91-141.177 97.752-141.177s124.649 38.662 124.649 107.504-73.738 214.857-191.144 214.857z" fill="#ffda00"/><path d="m371.175 220.143c0-65.791-50.972-104.014-115.579-107.273v300.576c72.588-43.197 115.578-140.741 115.579-193.303z" fill="#fdba12"/><path d="m409.388 114.571-26.961 25.071c-27.559 25.627-70.674 24.061-96.301-3.497l-25.071-26.96 26.961-25.071c27.559-25.627 70.674-24.061 96.301 3.497z" fill="#108d91"/><path d="m261.055 109.184 25.071 26.96c25.627 27.558 68.742 29.124 96.301 3.498l26.962-25.071z" fill="#0f5a64"/><path d="m246.65 58.316h19.825v71.592h-19.825z" fill="#b56d3c"/><path d="m255.634 58.316h10.841v71.592h-10.841z" fill="#94572e"/></svg>